
<!-- Generator: Adobe Illustrator 16.0.0, SVG Export Plug-In . SVG Version:
6.00 Build 0) -->
<svg contentScriptType="text/ecmascript" zoomAndPan="magnify"
     xmlns:xlink="http://www.w3.org/1999/xlink" contentStyleType="text/css"
     id="Filled_Icons" enable-background="new 0 0 24 24" version="1.1"
     xml:space="preserve" width="24px" preserveAspectRatio="xMidYMid meet"
     viewBox="0 0 24 24" height="24px" xmlns="http://www.w3.org/2000/svg"
     x="0px" y="0px">
    <g fill="#3e3832">
        <path fill="#3e3832"
              d="M12,6c-3.309,0-6,2.691-6,6c0,3.31,2.691,6,6,6s6-2.69,6-6C18,8.691,15.309,6,12,6z"/></g>
    <g fill="#3e3832">
        <path fill="#3e3832"
              d="M4,1.051C3.646,1.102,3.312,1.202,3,1.352V8.5h1V1.051z"/></g>
    <path fill="#3e3832"
          d="M6,8.422V1H5v7.5h0.947C5.963,8.473,5.983,8.448,6,8.422z"/>
    <g fill="#3e3832">
        <path fill="#3e3832"
              d="M23,18.848V8.5V5.152V4.5C23,2.57,21.43,1,19.5,1H7v6.119C8.271,5.815,10.04,5,12,5c2.584,0,4.84,1.411,6.053,3.5H22   v10.348C22,20.586,20.586,22,18.848,22H5.152C3.414,22,2,20.586,2,18.848V8.5V5.152V2.058C1.383,2.69,1,3.55,1,4.5v0.652V8.5   v10.348C1,21.137,2.863,23,5.152,23h13.695C21.137,23,23,21.137,23,18.848z M21.5,7h-3C18.224,7,18,6.776,18,6.5v-3   C18,3.224,18.224,3,18.5,3h3C21.776,3,22,3.224,22,3.5v1.652V6.5C22,6.776,21.776,7,21.5,7z"/></g></svg>