
<!-- Generator: Adobe Illustrator 16.0.0, SVG Export Plug-In . SVG Version:
6.00 Build 0) -->
<svg contentScriptType="text/ecmascript" zoomAndPan="magnify"
     xmlns:xlink="http://www.w3.org/1999/xlink" contentStyleType="text/css"
     id="Filled_Icons" enable-background="new 0 0 24 24" version="1.1"
     xml:space="preserve" width="24px" preserveAspectRatio="xMidYMid meet"
     viewBox="0 0 24 24" height="24px" xmlns="http://www.w3.org/2000/svg"
     x="0px" y="0px">
    <g fill="#3e3832">
        <path fill="#3e3832"
              d="M8.545,9.521C8.677,9.292,8.828,9.08,9,8.882V6H8v3.522L8.545,9.521z"/>
        <circle fill="#3e3832" r="3" cx="12" cy="11.5"/>
        <path fill="#3e3832"
              d="M10,8.056C10.591,7.712,11.269,7.5,12,7.5c1.477,0,2.754,0.813,3.447,2.006L18,9.501V7.832C18,6.822,17.178,6,16.167,6H10   V8.056z M16,7h1v1h-1V7z"/>
        <path fill="#3e3832"
              d="M12,0C5.383,0,0,5.383,0,12s5.383,12,12,12s12-5.383,12-12S18.617,0,12,0z M19,16.166C19,17.729,17.729,19,16.167,19H7.833   C6.271,19,5,17.729,5,16.166V7.832C5,6.27,6.271,5,7.833,5h8.334C17.729,5,19,6.27,19,7.832V16.166z"/>
        <path fill="#3e3832"
              d="M7,9.524V6.21C6.409,6.514,6,7.123,6,7.832v1.695L7,9.524z"/></g></svg>