
<!-- Generator: Adobe Illustrator 16.0.0, SVG Export Plug-In . SVG Version:
6.00 Build 0) -->
<svg contentScriptType="text/ecmascript" zoomAndPan="magnify"
     xmlns:xlink="http://www.w3.org/1999/xlink" contentStyleType="text/css"
     id="Filled_Icons" enable-background="new 0 0 24 24" version="1.1"
     xml:space="preserve" width="24px" preserveAspectRatio="xMidYMid meet"
     viewBox="0 0 24 24" height="24px" xmlns="http://www.w3.org/2000/svg"
     x="0px" y="0px">
    <g fill="#3e3832">
        <path fill="#3e3832"
              d="M10.752,9.068c-0.154-0.09-0.345-0.091-0.501-0.002C10.096,9.156,10,9.32,10,9.5v4.906c0,0.178,0.094,0.342,0.247,0.432   c0.078,0.047,0.166,0.068,0.253,0.068c0.084,0,0.169-0.021,0.245-0.063l4.283-2.407c0.156-0.088,0.253-0.252,0.255-0.432   c0.001-0.18-0.093-0.346-0.248-0.436L10.752,9.068z"/>
        <path fill="#3e3832"
              d="M12,0C5.383,0,0,5.383,0,12s5.383,12,12,12s12-5.383,12-12S18.617,0,12,0z M19,14.256C19,15.77,17.77,17,16.258,17H7.741   C6.229,17,5,15.77,5,14.256V9.743C5,8.23,6.229,7,7.741,7h8.517C17.77,7,19,8.23,19,9.743V14.256z"/></g></svg>