<!-- Generator: Adobe Illustrator 16.0.0, SVG Export Plug-In . SVG Version:
6.00 Build 0) -->
<svg contentScriptType="text/ecmascript" zoomAndPan="magnify"
     xmlns:xlink="http://www.w3.org/1999/xlink" contentStyleType="text/css"
     id="Outline_Version" enable-background="new 0 0 24 24" version="1.1"
     xml:space="preserve" width="24px" preserveAspectRatio="xMidYMid meet"
     viewBox="0 0 24 24" height="24px" xmlns="http://www.w3.org/2000/svg"
     x="0px" y="0px">
   <g fill="#3e3832">
       <path d="M12,0.876c-6.617,0-12,4.434-12,9.883c0,2.574,1.177,4.986,3.325,6.831l-2.41,4.812c-0.095,0.189-0.06,0.42,0.089,0.572   c0.096,0.099,0.226,0.151,0.358,0.151c0.071,0,0.144-0.016,0.211-0.047l6.437-2.996c1.282,0.372,2.624,0.561,3.99,0.561   c6.617,0,12-4.434,12-9.884C24,5.31,18.617,0.876,12,0.876z M12,19.643c-1.333,0-2.64-0.192-3.883-0.572   c-0.118-0.036-0.246-0.027-0.357,0.025l-5.308,2.471l1.946-3.884c0.105-0.211,0.049-0.467-0.135-0.614   C2.159,15.386,1,13.146,1,10.759c0-4.898,4.935-8.883,11-8.883s11,3.985,11,8.883C23,15.657,18.065,19.643,12,19.643z"/>
       <path d="M15.276,5.875c-0.951,0-2.07,0.492-2.776,1.784c-0.706-1.292-1.826-1.784-2.776-1.784C8.139,5.875,6.5,7.198,6.5,9.412   c0,3.182,5.473,7.199,5.706,7.369c0.087,0.063,0.191,0.096,0.294,0.096s0.207-0.032,0.294-0.096   c0.233-0.17,5.706-4.188,5.706-7.369C18.5,7.198,16.861,5.875,15.276,5.875z M12.5,15.753c-1.63-1.246-5-4.254-5-6.341   c0-1.588,1.13-2.537,2.224-2.537c1.086,0,1.942,0.864,2.29,2.312c0.108,0.45,0.864,0.45,0.973,0   c0.348-1.447,1.204-2.312,2.29-2.312c1.093,0,2.224,0.949,2.224,2.537C17.5,11.497,14.13,14.506,12.5,15.753z"/>
   </g>
</svg>
