<svg contentScriptType="text/ecmascript" width="24"
     xmlns:xlink="http://www.w3.org/1999/xlink" zoomAndPan="magnify"
     contentStyleType="text/css" viewBox="0 0 24 24" height="24"
     preserveAspectRatio="xMidYMid meet" xmlns="http://www.w3.org/2000/svg"
     version="1.0">
    <g fill="none" stroke-miterlimit="10" stroke="#3e3832"
       stroke-linejoin="round" stroke-linecap="round">
        <path d="M3.5 3.5h11"/>
        <path d="M3.5 6.5h5v6h-5zM11.5 8.5h3M10.5 10.5h4M10.5 12.5h4M3.5 14.5h11M3.5 16.5h11M3.5 18.5h11M19.5 5.5h2v15c0 .553-.447 1-1 1-.552 0-1-.447-1-1v-18.5h-2v2M20.5 23.5h-17c-1.656 0-3-1.344-3-3v-20h17v20c0 1.656 1.344 3 3 3 1.657 0 3-1.344 3-3v-17h-4"/>
    </g>
</svg>
