<svg version="1.1" id="Filled_Version" xmlns="http://www.w3.org/2000/svg"
     x="0px"
     y="0px" width="24px" height="24px" viewBox="0 0 24 24" enable-background="new 0 0 24 24" xml:space="preserve">
<g>
	<path d="M17.168,16.155c-0.472-0.473-1.1-0.732-1.768-0.732c-0.668,0-1.295,0.26-1.768,0.732l-0.385,0.385
		c-2.07-1.732-4.059-3.721-5.789-5.789l0.385-0.385c0.975-0.975,0.975-2.561,0-3.536L5.722,4.709
		c-0.472-0.472-1.1-0.731-1.768-0.731s-1.296,0.26-1.768,0.731L1.022,5.873c-1.169,1.169-1.355,3.021-0.442,4.404
		c3.422,5.174,7.966,9.718,13.141,13.142c0.575,0.379,1.243,0.58,1.932,0.58c0.935,0,1.813-0.363,2.472-1.023l1.164-1.164
		c0.974-0.974,0.974-2.56,0-3.535L17.168,16.155z"/>
    <path d="M11.998,0.001c-0.276,0-0.5,0.225-0.5,0.5c0,0.276,0.224,0.5,0.5,0.5c6.065,0,11,4.935,11,11c0,0.276,0.224,0.5,0.5,0.5
		s0.5-0.224,0.5-0.5C23.998,5.385,18.614,0.001,11.998,0.001z"/>
    <path d="M11.998,5.001c3.86,0,7,3.141,7,7c0,0.276,0.224,0.5,0.5,0.5s0.5-0.224,0.5-0.5c0-4.411-3.589-8-8-8
		c-0.276,0-0.5,0.225-0.5,0.5C11.498,4.777,11.722,5.001,11.998,5.001z"/>
    <path d="M11.998,9.001c1.654,0,3,1.346,3,3c0,0.276,0.224,0.5,0.5,0.5s0.5-0.224,0.5-0.5c0-2.205-1.794-4-4-4
		c-0.276,0-0.5,0.225-0.5,0.5C11.498,8.777,11.722,9.001,11.998,9.001z"/>
</g>
</svg>
