<svg xmlns="http://www.w3.org/2000/svg" width="24" height="24" viewBox="0 0 24 24">
    <g>
        <path stroke="#000" stroke-linejoin="round" stroke-miterlimit="10"
              d="M12.414 4.163c-2.182-1.229-4.901-1.415-7.25-.565-1.542.554-2.939 1.588-3.803 2.994-.781 1.268-1.076 2.849-.697 4.302.378 1.609 1.494 2.958 2.854 3.861-.256.743-.508 1.485-.746 2.235.859-.447 1.709-.912 2.564-1.367 1.033.33 2.117.49 3.201.455-.282-.828-.35-1.721-.221-2.584.206-1.199.854-2.297 1.75-3.109 1.509-1.413 3.649-2.01 5.685-1.867-.38-1.866-1.691-3.445-3.337-4.355zm-6.404 3.248c-.071.339-.526.503-.791.276-.309-.218-.223-.755.14-.865.354-.136.758.223.651.589zm5.283-.097c.003.391-.519.635-.812.369-.304-.217-.218-.747.14-.856.318-.126.696.144.672.487z"
              fill="none"/>
        <path stroke="#000" stroke-linejoin="round" stroke-miterlimit="10"
              d="M23.098 14.443c-.533-1.207-1.539-2.162-2.705-2.754-2.06-1.046-4.622-1.037-6.674.025-1.428.732-2.619 2.046-2.958 3.642-.279 1.175-.028 2.44.595 3.467.929 1.539 2.604 2.521 4.35 2.837 1.264.257 2.569.106 3.795-.25.734.286 1.395.748 2.107 1.09-.184-.617-.379-1.23-.59-1.838.799-.568 1.525-1.277 1.963-2.168.65-1.239.69-2.775.117-4.051zm-7.504.33c-.105.331-.588.431-.819.178-.257-.232-.157-.721.179-.823.373-.157.804.272.64.645zm4.189.041c-.125.291-.559.357-.773.133-.104-.094-.13-.235-.172-.361.057-.226.207-.461.463-.471.355-.049.668.383.482.699z"
              fill="none"/>
    </g>
</svg>
