<svg xmlns="http://www.w3.org/2000/svg" width="24" height="24" viewBox="0 0 24 24">
    <g>
        <path stroke="#000" stroke-linejoin="round" stroke-miterlimit="10" fill="none"
              d="M14 9.5h2v4l3.841-4h3.659v-9h-15v4"/>
        <path d="M20 5h-1v1h1v-1zM17 5h-1v1h1v-1zM14 5h-1v1h1v-1z"/>
        <path stroke="#000" stroke-linejoin="round" stroke-miterlimit="10"
              d="M7.76 23.5h7.74v-2.5c0-.5-3-2-5.5-3v-2s.92-.35.92-2.5c.696 0 .961-2-.008-2 0-.21.746-1.308.448-2.5-.5-2-5.43-2-5.93 0-2.105-.43-.43 2.212-.43 2.5-1 0-1 2 0 2 0 2.15 1 2.5 1 2.5v2c-2.5 1-5.5 2.5-5.5 3v2.5h7.26z"
              fill="none"/>
    </g>
</svg>
