<?xml version="1.0" encoding="UTF-8"?>
<svg width="44px" height="44px" viewBox="0 0 44 44" version="1.1" xmlns="http://www.w3.org/2000/svg" xmlns:xlink="http://www.w3.org/1999/xlink">
    <!-- Generator: Sketch 59.1 (86144) - https://sketch.com -->
    <title>Group 4</title>
    <desc>Created with Sketch.</desc>
    <defs>
        <path d="M30.25,17.4166667 C37.7025,17.4166667 44,22.8745 44,29.3333333 C44,32.263 42.8138333,34.8645 40.5588333,36.8995 L40.5588333,36.8995 L42.9898333,41.756 C43.1566667,42.0933333 43.1035,42.5003333 42.8505,42.7808333 C42.6726667,42.977 42.4233333,43.0833333 42.1685,43.0833333 C42.0603333,43.0833333 41.9521667,43.0631667 41.8458333,43.0246667 L41.8458333,43.0246667 L34.8571667,40.4048333 C33.1778333,41.0978333 31.4196667,41.448 29.6266667,41.448 C22.5115,41.448 16.5,35.9003333 16.5,29.3333333 C16.5,22.8745 22.7975,17.4166667 30.25,17.4166667 Z M30.25,19.25 C23.7911667,19.25 18.3333333,23.8681667 18.3333333,29.3333333 C18.3333333,34.9066667 23.5051667,39.6146667 29.6266667,39.6146667 C31.2858333,39.6146667 32.912,39.2681667 34.4611667,38.5788333 C34.5785,38.5275 34.7068333,38.5 34.8333333,38.5 C34.9433333,38.5 35.0515,38.5201667 35.156,38.5586667 L35.156,38.5586667 L40.3021667,40.4873333 L38.5953333,37.0755 C38.4028333,36.6886667 38.5055,36.2193333 38.8428333,35.9498333 C41.0483333,34.1861667 42.1666667,31.9605 42.1666667,29.3333333 C42.1666667,23.8681667 36.7088333,19.25 30.25,19.25 Z M16.5,-4.26325641e-14 C25.597,-4.26325641e-14 33,6.116 33,13.6326667 L33,13.6326667 L31.1666667,13.6326667 C31.1666667,7.12616667 24.5868333,1.83333333 16.5,1.83333333 C8.41316667,1.83333333 1.83333333,7.12616667 1.83333333,13.6326667 C1.83333333,16.9216667 3.37883333,20.0456667 6.072,22.1998333 C6.424,22.4821667 6.51933333,22.979 6.29566667,23.3713333 L6.29566667,23.3713333 L3.9325,27.5055 L10.659,24.816 C10.8533333,24.7353333 11.0678333,24.7261667 11.2695,24.7885 C12.0706667,25.036 12.9103333,25.2193333 13.7646667,25.3348333 L13.7646667,25.3348333 L13.5171667,27.1498333 C12.6756667,27.038 11.8451667,26.8638333 11.0458333,26.6346667 L11.0458333,26.6346667 L2.17433333,30.184 C2.0625,30.228 1.94883333,30.25 1.83333333,30.25 C1.573,30.25 1.32,30.1381667 1.14216667,29.9365 C0.8855,29.6431667 0.845166667,29.2196667 1.03766667,28.8805 L1.03766667,28.8805 L4.32666667,23.1238333 C1.5675,20.647 0,17.2296667 0,13.6326667 C0,6.11416667 7.403,-4.26325641e-14 16.5,-4.26325641e-14 Z" id="path-1"/>
    </defs>
    <g id="Page-1" stroke="none" stroke-width="1" fill="none" fill-rule="evenodd">
        <g id="Desktop-HD" transform="translate(-816.000000, -597.000000)">
            <g id="Group-4" transform="translate(816.000000, 597.000000)">
                <g id="Group-Copy-3" transform="translate(8.500000, 5.500000)" fill-rule="nonzero">
                    <polygon id="Combined-Shape-path" fill="#3E3832" points="10.9325794 6.60437418 10.9325794 7.9054853 14.023636 7.9054853 14.023636 9.45364283 10.9325794 9.45364283 10.9325794 10.8700423 14.8208034 10.8700423 14.8208034 12.4840788 10.9325794 12.4840788 10.9325794 15.2015894 9.24063264 15.2015894 9.24063264 12.4840788 5.66151424 12.4840788 5.66151424 10.8700423 9.24063264 10.8700423 9.24063264 9.45364283 6.36106928 9.45364283 6.36106928 7.9054853 9.24063264 7.9054853 9.24063264 6.60437418"/>
                    <path d="M3.80688032,4.75976094 L3.80688032,11.3311956 L5.0107656,10.0136147 L5.4662896,11.8417582 C4.49016656,12.895823 3.44896848,13.8510691 2.35896432,14.6910268 L1.70821552,13.1428694 C2.00105248,12.8793531 2.16373968,12.5664276 2.16373968,12.1876231 L2.16373968,6.40673704 L5.15143483e-14,6.40673704 L5.15143483e-14,4.75976094 L3.80688032,4.75976094 Z" id="Combined-Shape-path" fill="#3E3832"/>
                    <path d="M13.8934862,0.428213792 L13.8934862,1.84461323 C13.5193058,2.94808723 12.8034821,3.90333336 11.7297466,4.71035166 C12.7058698,5.0726864 13.8446802,5.33620258 15.1624464,5.46796067 L15.1624464,5.46796067 L14.5605038,6.96670891 C12.7709446,6.75260203 11.3067598,6.32438824 10.1354122,5.66559779 C8.89898944,6.27497896 7.38599856,6.76907179 5.59643936,7.14787629 L5.59643936,7.14787629 L4.79927216,5.71500709 C6.2797256,5.41855138 7.5649544,5.05621664 8.63868992,4.61153309 C7.84152272,3.8868636 7.2558488,2.99749651 6.86539952,1.94343181 L6.86539952,1.94343181 L5.88927632,1.94343181 L5.88927632,0.428213792 L13.8934862,0.428213792 Z" id="Combined-Shape-path" fill="#3E3832"/>
                    <path d="M2.27762064,1.77635684e-14 C3.30255008,0.807018288 4.1810608,1.61403658 4.91315328,2.4045851 L4.91315328,2.4045851 L3.74180544,3.60687766 C3.12359408,2.84926866 2.22881456,2.04225037 1.07373552,1.1858228 L1.07373552,1.1858228 L2.27762064,1.77635684e-14 Z" id="Combined-Shape-path" fill="#3E3832"/>
                    <path d="M12.1201958,1.94343181 L8.52480896,1.94343181 C8.8827208,2.70104082 9.41958848,3.32689173 10.1354122,3.85392408 C11.013923,3.29395221 11.6809405,2.66810128 12.1201958,1.94343181 L12.1201958,1.94343181 Z" id="Combined-Shape-path" fill="#FFFFFF"/>
                    <path d="M19.7718744,17.7413622 L23.5533905,21.3137527 L22.2907766,19.2648956 C22.0602397,18.8907728 22.1970508,18.4123855 22.5963523,18.1963875 C22.9956544,17.9803895 23.5062396,18.1085719 23.7367771,18.4826893 L27.421652,24.4624398 L29.0879453,25.5032244 C29.1552134,25.5455103 29.2236534,25.5885539 29.2932653,25.6323609 C29.4727228,25.7452885 29.5461349,25.960158 29.4704244,26.1508968 L28.3151499,29.0613798 C28.2502503,29.2248803 28.0887878,29.3363686 27.9041878,29.3451464 L24.647199,29.5 L24.1396978,29.496876 C22.9785308,29.4815722 21.6416253,29.4011767 21.0656573,29.0677859 L17.7262631,28.0161681 L17.6978967,28.0157156 C17.5243346,28.0113976 16.6131318,27.9660914 16.6131318,27.4903592 C16.6131318,26.9645504 17.6133493,26.4387415 18.282829,26.4387415 C18.9523086,26.4387415 19.9525261,26.9645504 20.5090914,26.9645504 C21.0656573,26.9645504 21.6222232,26.4387415 21.6222232,25.912938 C21.6222232,25.3871292 20.5188663,24.3395023 20.5090914,24.3355114 L18.0752759,23.8748814 L17.1282303,26.423683 C16.9696912,26.8501125 16.4880601,27.0699815 16.0524769,26.9147734 C15.6168943,26.7595654 15.3923058,26.2880586 15.5508449,25.8616291 L16.6990876,22.7731432 C16.8477181,22.3733686 17.1391293,22.2477978 17.6360216,22.2336661 L17.7407567,22.2322759 L18.2450303,22.2372536 C18.6135521,22.2377115 19.043983,22.2336171 19.6606386,22.2325321 L16.4862777,20.5493145 C16.0753587,20.3315173 15.9345677,19.8491501 16.1718119,19.4719142 C16.4090562,19.0946782 16.9344957,18.9654272 17.3454147,19.1832244 L20.7293988,20.9769108 L18.5383086,18.9067581 C18.1976687,18.5849419 18.1976687,18.0631784 18.5383086,17.7413622 C18.8789485,17.4195459 19.4312345,17.4195459 19.7718744,17.7413622 Z" id="Shape-path" fill="#3E3832" transform="translate(22.500000, 23.500000) rotate(-300.000000) translate(-22.500000, -23.500000) "/>
                </g>
                <mask id="mask-2" fill="white">
                    <use xlink:href="#path-1"/>
                </mask>
                <use id="Mask-Copy-6" fill="#3E3832" fill-rule="nonzero" xlink:href="#path-1"/>
            </g>
        </g>
    </g>
</svg>
