<svg xmlns="http://www.w3.org/2000/svg" width="24" height="24" viewBox="0 0 24 24">
    <g stroke="#000" stroke-linecap="round" stroke-linejoin="round" stroke-miterlimit="10" fill="none">
        <path d="M7.492 10.012c.78-.781.78-2.047 0-2.829l-2.122-2.121c-.78-.78-2.048-.78-2.828 0l-1.164 1.164c-1.009 1.008-1.165 2.584-.378 3.774 3.38 5.11 7.889 9.619 13 13 1.188.785 2.768.629 3.773-.379l1.165-1.164c.78-.78.78-2.047 0-2.828l-2.122-2.121c-.781-.781-2.047-.781-2.828 0l-.707.707c-2.326-1.906-4.591-4.17-6.496-6.496l.707-.707zM12 .5c6.352 0 11.5 5.148 11.5 11.5M12 4.5c4.142 0 7.5 3.357 7.5 7.5M12 8.5c1.933 0 3.5 1.566 3.5 3.5"/>
    </g>
</svg>
